<?xml version="1.0" encoding="UTF-8" standalone="no"?>
<svg
   width="302.65"
   height="45.12"
   viewBox="0 0 80.08 11.94"
   version="1.1"
   id="svg14"
   sodipodi:docname="LyricsINC logo.svg"
   xml:space="preserve"
   inkscape:version="1.2.2 (732a01da63, 2022-12-09)"
   xmlns:inkscape="http://www.inkscape.org/namespaces/inkscape"
   xmlns:sodipodi="http://sodipodi.sourceforge.net/DTD/sodipodi-0.dtd"
   xmlns="http://www.w3.org/2000/svg"
   xmlns:svg="http://www.w3.org/2000/svg"><defs
     id="defs18"><linearGradient
       id="linearGradient7704"
       inkscape:swatch="solid"><stop
         style="stop-color:#ffffff;stop-opacity:1;"
         offset="0"
         id="stop7702" /></linearGradient></defs><sodipodi:namedview
     id="namedview16"
     pagecolor="#ffffff"
     bordercolor="#000000"
     borderopacity="0.25"
     inkscape:showpageshadow="2"
     inkscape:pageopacity="0.0"
     inkscape:pagecheckerboard="0"
     inkscape:deskcolor="#d1d1d1"
     showgrid="false"
     inkscape:zoom="2.8270254"
     inkscape:cx="186.94562"
     inkscape:cy="-4.9522018"
     inkscape:window-width="1920"
     inkscape:window-height="1009"
     inkscape:window-x="-8"
     inkscape:window-y="-8"
     inkscape:window-maximized="1"
     inkscape:current-layer="svg14"
     showguides="false" /><g
     id="g9025"
     inkscape:label="LYRICSINC Logo"><path
       fill="#d70377"
       d="M 17.360073,0.20258332 H 70.18331 V 11.772584 H 17.360073 Z"
       id="path2"
       style="display:inline;fill:#f30080;fill-opacity:1;stroke-width:0.899407"
       sodipodi:insensitive="true"
       inkscape:label="bg" /><path
       style="display:inline;fill:#ffffff;stroke-width:0.00929428"
       d="m 8.359558,11.867728 c -0.1207529,-0.006 -0.329902,-0.04866 -0.4057057,-0.08272 -0.016108,-0.0072 -0.033502,-0.01316 -0.038653,-0.01316 -0.025307,0 -0.2162147,-0.108483 -0.2838545,-0.1613 -0.2971052,-0.231997 -0.4454384,-0.540086 -0.4458964,-0.926131 -2.24e-4,-0.188505 0.032701,-0.366657 0.096861,-0.524098 0.014813,-0.03635 0.026946,-0.06943 0.026963,-0.07351 4.65e-5,-0.01174 0.085318,-0.1807613 0.1298821,-0.2574632 C 7.5039195,9.717873 7.6119358,9.5823541 7.7321171,9.4617887 7.7935011,9.4002077 7.8563294,9.3395625 7.8717344,9.3270215 7.9264574,9.2824715 8.0026872,9.2279175 8.071435,9.1841065 8.109774,9.1596745 8.151598,9.1326035 8.164378,9.1239495 8.234983,9.0761385 8.5170051,8.9547574 8.601209,8.9359402 c 0.017891,-0.004 0.055533,-0.013174 0.083649,-0.020391 0.1174511,-0.030147 0.1709458,-0.036792 0.3299469,-0.040985 0.1417624,-0.00374 0.1857385,-0.00136 0.2881225,0.015547 0.1488858,0.024593 0.2095026,0.042826 0.3468603,0.1043309 0.070819,0.031711 0.074454,0.031955 0.080191,0.00539 0.00248,-0.011502 0.0061,-1.3216461 0.00805,-2.9114321 0.0033,-2.7031495 0.00458,-2.8959423 0.019753,-2.9741685 0.024486,-0.1262792 0.061588,-0.2179051 0.132078,-0.3261749 0.084203,-0.1293331 0.1843533,-0.2013273 0.4447323,-0.3197017 0.03578,-0.016268 0.09643,-0.044295 0.134767,-0.062284 0.03834,-0.017988 0.07807,-0.036069 0.08829,-0.04018 0.01022,-0.00411 0.05414,-0.024166 0.09759,-0.044568 0.04345,-0.020401 0.112461,-0.052512 0.153356,-0.071356 0.04089,-0.018844 0.103631,-0.048118 0.139414,-0.065054 0.03578,-0.016935 0.09225,-0.043385 0.125473,-0.058776 0.03323,-0.015391 0.09596,-0.044531 0.139414,-0.064755 0.04345,-0.020224 0.104096,-0.048108 0.134767,-0.061963 0.03067,-0.013856 0.07668,-0.035061 0.102237,-0.047123 0.125068,-0.059022 0.377028,-0.1773113 0.478655,-0.2247168 0.0712,-0.033212 0.114152,-0.053355 0.269534,-0.1264034 0.08203,-0.038563 0.157604,-0.073434 0.26024,-0.1200779 0.04115,-0.018702 0.175198,-0.082584 0.376418,-0.1793881 0.238795,-0.1148812 0.467658,-0.2235419 0.52048,-0.2471147 0.01022,-0.00456 0.02486,-0.012286 0.03253,-0.017163 0.0077,-0.00488 0.05158,-0.026169 0.09759,-0.0473162 0.04601,-0.0211471 0.108744,-0.0503209 0.139415,-0.0648307 0.03067,-0.0145098 0.08504,-0.0396728 0.120825,-0.0559178 0.06598,-0.0299538 0.184924,-0.0851675 0.269534,-0.12511722 0.02556,-0.0120681 0.07575,-0.0353427 0.111532,-0.0517213 0.09879,-0.0452198 0.211609,-0.098189 0.329946,-0.15491565 0.05879,-0.0281801 0.142435,-0.0678455 0.185886,-0.0881455 0.04345,-0.0203 0.114552,-0.0536297 0.158003,-0.0740661 0.04345,-0.0204364 0.104096,-0.0487557 0.134767,-0.0629318 0.03067,-0.014176 0.08295,-0.0387878 0.116178,-0.0546927 0.0525,-0.0251283 0.06179,-0.0270909 0.07091,-0.0149756 0.0077,0.0102408 0.01093,0.51278496 0.01213,1.89284337 8.92e-4,1.0333955 0.0033,1.8816232 0.0054,1.8849506 0.0021,0.00333 0.0042,0.9341937 0.0048,2.0685918 9.02e-4,1.830425 -6.41e-4,2.0765129 -0.01375,2.1866856 -0.0081,0.068279 -0.0183,0.1310155 -0.02263,0.1394142 -0.0043,0.0084 -0.01082,0.032 -0.01443,0.052447 -0.0099,0.055807 -0.0588,0.1946011 -0.09935,0.2817014 -0.01977,0.042475 -0.03595,0.079022 -0.03595,0.081216 0,0.011397 -0.121658,0.2066159 -0.177791,0.2852908 -0.112476,0.1576473 -0.325441,0.3637701 -0.501813,0.4856933 -0.06975,0.048218 -0.158698,0.098609 -0.240529,0.136268 -0.04345,0.019996 -0.09084,0.042477 -0.105314,0.049958 -0.01447,0.00748 -0.0312,0.013627 -0.03718,0.013659 -0.006,0 -0.02314,0.00646 -0.03814,0.01428 -0.015,0.00782 -0.04219,0.018052 -0.06041,0.022734 -0.01823,0.00468 -0.07078,0.018745 -0.116788,0.031251 C 13.243259,9.9886751 12.801974,9.9312515 12.47204,9.7125189 12.40027,9.6649369 12.252458,9.5253229 12.20213,9.457575 12.085605,9.3007176 12.026276,9.1708222 11.982956,8.97771 c -0.02806,-0.1251003 -0.03106,-0.4432516 -0.0052,-0.5517997 0.04484,-0.1881553 0.0824,-0.2895448 0.17215,-0.4646589 0.02749,-0.053644 0.06285,-0.1163807 0.07857,-0.1394141 0.01572,-0.023034 0.04009,-0.058727 0.05416,-0.079318 0.04247,-0.06216 0.196568,-0.2371703 0.269824,-0.306449 0.07445,-0.07041 0.23229,-0.1919188 0.324741,-0.2499969 0.08201,-0.051518 0.252191,-0.1368495 0.334027,-0.1674845 0.03834,-0.014352 0.08435,-0.031814 0.102237,-0.038805 0.01789,-0.00699 0.06808,-0.021263 0.111532,-0.031716 0.04345,-0.010453 0.09364,-0.022917 0.111531,-0.027698 0.04837,-0.012924 0.224726,-0.028021 0.3253,-0.027847 0.207702,3.606e-4 0.388492,0.037282 0.542524,0.1107943 0.09582,0.045732 0.09505,0.046312 0.101952,-0.07611 0.0097,-0.171874 0.0071,-4.0064756 -0.0027,-4.021799 -0.0076,-0.011857 -0.0152,-0.011373 -0.05806,0.0037 -0.02713,0.00954 -0.0535,0.020383 -0.05861,0.024099 -0.0051,0.00372 -0.06815,0.032234 -0.140077,0.063373 -0.07193,0.031139 -0.143033,0.063004 -0.158003,0.070811 -0.01497,0.00781 -0.03002,0.01422 -0.03343,0.014251 -0.0058,5.58e-5 -0.08199,0.035024 -0.265456,0.1218578 -0.04207,0.019911 -0.07851,0.036202 -0.08099,0.036202 -0.0025,0 -0.05308,0.023003 -0.112467,0.051119 -0.05938,0.028115 -0.10971,0.051118 -0.111841,0.051118 -0.0021,0 -0.03003,0.012145 -0.06199,0.02699 -0.03196,0.014844 -0.09496,0.044121 -0.139988,0.06506 -0.04503,0.020939 -0.08371,0.03807 -0.08595,0.03807 -0.0022,0 -0.03022,0.012145 -0.06219,0.02699 -0.03196,0.014844 -0.09496,0.044121 -0.139988,0.06506 -0.04503,0.020939 -0.08364,0.03807 -0.08579,0.03807 -0.0022,0 -0.0385,0.016176 -0.08078,0.035946 -0.136947,0.064051 -0.224582,0.1048364 -0.272036,0.126605 -0.02556,0.011725 -0.07926,0.03641 -0.119331,0.054856 -0.04007,0.018446 -0.07412,0.033538 -0.07566,0.033538 -0.0015,0 -0.06407,0.029277 -0.138947,0.06506 -0.07488,0.035783 -0.137732,0.06506 -0.139674,0.06506 -0.0019,0 -0.0436,0.018821 -0.09258,0.041824 -0.04898,0.023003 -0.129123,0.060645 -0.178101,0.083648 -0.04898,0.023003 -0.0907,0.041824 -0.09271,0.041824 -0.002,0 -0.06481,0.029277 -0.139544,0.06506 -0.07473,0.035783 -0.137328,0.06506 -0.139096,0.06506 -0.0018,0 -0.03797,0.016254 -0.08044,0.036119 -0.175625,0.08214 -0.331321,0.1539334 -0.486175,0.2241828 -0.158832,0.072054 -0.276354,0.1265667 -0.382888,0.1776025 -0.05212,0.024969 -0.09928,0.045398 -0.104791,0.045398 -0.0055,0 -0.0138,0.00993 -0.01842,0.022076 -0.005,0.013069 -0.0062,1.096695 -0.0031,2.6558395 0.0049,2.441328 0.0041,2.6429312 -0.01048,2.7592362 -0.01987,0.157977 -0.05055,0.284166 -0.101675,0.418242 -0.01782,0.04672 -0.10306,0.220713 -0.129666,0.264667 -0.08902,0.147056 -0.2037023,0.294705 -0.3148123,0.405304 -0.1830478,0.182207 -0.3592899,0.301633 -0.6210871,0.420867 -0.1207764,0.05501 -0.3272976,0.116913 -0.436831,0.130942 -0.028115,0.0036 -0.065757,0.01 -0.083649,0.0142 -0.039062,0.0092 -0.2224619,0.01659 -0.3067111,0.01239 z M 6.1335787,10.404689 C 5.9289262,10.246086 5.7500367,10.06985 5.5024056,9.7828754 5.4601925,9.7339559 5.3385837,9.5787573 5.3046769,9.530533 5.2851707,9.5027896 5.2638271,9.4739792 5.2572468,9.4665094 5.2394908,9.4463538 5.1517286,9.3095002 5.1260589,9.2619388 5.1137794,9.2391869 5.0995555,9.2152004 5.0944504,9.2086357 5.0662681,9.1723952 4.8927928,8.8226253 4.8927928,8.8020432 c 0,-0.00428 -0.00788,-0.024791 -0.01751,-0.045575 -0.00963,-0.020783 -0.032954,-0.077521 -0.05183,-0.1260836 -0.018876,-0.048563 -0.0385,-0.0986 -0.043609,-0.111195 -0.00511,-0.012594 -0.021543,-0.060692 -0.036521,-0.1068841 -0.014978,-0.046192 -0.031389,-0.091247 -0.036471,-0.1001237 -0.00508,-0.00888 -0.00918,-0.021424 -0.0091,-0.027883 7.44e-5,-0.00646 -0.00859,-0.041021 -0.019256,-0.076804 C 4.6472258,8.1025918 4.6335279,8.051627 4.6272818,8.0169628 4.624058,7.9990714 4.6160348,7.965612 4.6094526,7.9426086 4.5926878,7.8840196 4.5759126,7.7949494 4.5403096,7.5754847 4.5345047,7.5397017 4.5253911,7.4853302 4.5200571,7.4546591 4.5147232,7.423988 4.5045965,7.3403395 4.4975533,7.2687736 4.4905101,7.1972077 4.4801891,7.0968295 4.4746176,7.0457109 c -0.011152,-0.1023174 -0.00929,-0.797851 0.00216,-0.809291 0.00718,-0.00717 0.075849,0.019278 0.1000082,0.038511 0.00767,0.0061 0.024168,0.014225 0.036668,0.018047 0.012499,0.00382 0.042739,0.019263 0.0672,0.034314 0.081066,0.049881 0.077314,0.065774 0.077772,-0.3294033 3.331e-4,-0.2872039 0.00303,-0.3582169 0.015811,-0.4160254 0.00848,-0.038339 0.019793,-0.098984 0.02515,-0.134767 0.037726,-0.2519939 0.054296,-0.3250123 0.1276078,-0.5623038 0.018162,-0.058786 0.038808,-0.1179855 0.04588,-0.1315538 0.00707,-0.013568 0.012859,-0.030217 0.012859,-0.036998 0,-0.010578 0.020048,-0.067168 0.047299,-0.1335125 0.017692,-0.043072 0.05262,-0.1313661 0.058112,-0.1468994 0.00861,-0.024344 0.024693,-0.012545 0.1907668,0.1399287 0.028534,0.026197 0.051518,0.039501 0.068245,0.039501 0.028819,0 0.035938,-0.01822 0.054468,-0.1394141 0.00586,-0.038339 0.014684,-0.077304 0.019605,-0.08659 0.00492,-0.00929 0.012402,-0.036472 0.016625,-0.060413 0.00422,-0.023942 0.011932,-0.056077 0.017131,-0.071413 0.0052,-0.015336 0.016781,-0.052977 0.025738,-0.083648 0.00896,-0.030671 0.023955,-0.075632 0.03333,-0.099914 0.036068,-0.093421 0.055819,-0.1428421 0.068717,-0.1719441 0.00736,-0.016614 0.019391,-0.043799 0.026728,-0.060413 0.027978,-0.063348 0.063647,-0.1348034 0.098589,-0.1975034 0.019942,-0.035783 0.04013,-0.073618 0.044862,-0.084079 0.00473,-0.01046 0.029944,-0.055147 0.056026,-0.099305 0.026082,-0.044157 0.047421,-0.082694 0.047421,-0.085637 0,-0.00294 0.014638,-0.026177 0.03253,-0.051632 0.017891,-0.025454 0.03253,-0.048458 0.03253,-0.051119 0,-0.00266 0.013593,-0.024869 0.030206,-0.049351 0.041678,-0.061418 0.052539,-0.07856 0.060008,-0.09471 0.00659,-0.014258 0.072991,-0.1130098 0.1374788,-0.2044741 0.019823,-0.028115 0.052487,-0.075051 0.072586,-0.1043013 0.020099,-0.029251 0.050241,-0.068983 0.066981,-0.088296 0.030437,-0.035113 0.030437,-0.035113 0.077887,0.015066 0.026097,0.027599 0.04745,0.053418 0.04745,0.057376 0,0.00396 0.010828,0.020065 0.024062,0.035793 0.035101,0.041716 0.063534,0.038337 0.088454,-0.010511 0.028437,-0.055742 0.1104431,-0.1725939 0.1565063,-0.2230099 0.01846,-0.020204 0.014999,-0.015898 0.1403991,-0.1747139 0.058526,-0.074122 0.116867,-0.1452749 0.1296466,-0.1581178 0.01278,-0.012843 0.041876,-0.046302 0.06466,-0.074354 0.022783,-0.028052 0.056243,-0.067983 0.074354,-0.088735 0.018112,-0.020753 0.041469,-0.047938 0.051906,-0.060413 0.010437,-0.012475 0.037622,-0.043758 0.060413,-0.069519 0.02279,-0.025761 0.062349,-0.071438 0.087908,-0.1015044 0.025559,-0.030066 0.054836,-0.063947 0.06506,-0.075291 0.071471,-0.079301 0.1604887,-0.1833853 0.2137684,-0.2499492 0.015335,-0.019159 0.032214,-0.03964 0.037507,-0.045513 0.00529,-0.00587 0.023778,-0.030545 0.041076,-0.054826 0.017298,-0.024281 0.034925,-0.044148 0.03917,-0.044148 0.00425,0 0.00772,-0.00488 0.00772,-0.010838 0,-0.00596 0.0063,-0.017463 0.01401,-0.025559 0.047304,-0.049705 0.166403,-0.2220664 0.312381,-0.45208086 0.032627,-0.0514093 0.06458,-0.10159842 0.071007,-0.11153132 0.00643,-0.009933 0.016798,-0.0285159 0.023046,-0.0412955 0.00625,-0.0127796 0.014321,-0.025412 0.01794,-0.028072 0.00362,-0.00266 0.011085,-0.0152072 0.016592,-0.0278828 0.00551,-0.0126756 0.018197,-0.0355938 0.0282,-0.0509294 0.010002,-0.0153356 0.039708,-0.0708093 0.066013,-0.12327494 0.026305,-0.0524657 0.051518,-0.0976736 0.05603,-0.10046199 0.00451,-0.002788 0.0082,-0.0122042 0.0082,-0.020924 0,-0.00872 0.00836,-0.0314611 0.018588,-0.0505363 0.010224,-0.0190752 0.018589,-0.0429203 0.018589,-0.0529891 0,-0.0145472 0.021974,-0.0734793 0.034448,-0.0923871 0.00136,-0.002058 0.011214,0.007375 0.021902,0.0209623 0.010688,0.0135876 0.024339,0.0299536 0.030336,0.0363689 0.09224,0.0986715 0.2879106,0.35369539 0.4616763,0.60171693 0.043451,0.0620187 0.092332,0.13069748 0.1086245,0.15261948 0.03885,0.052273 0.2096206,0.3087884 0.2293884,0.3445651 0.00847,0.015336 0.019463,0.034156 0.024421,0.041824 0.08213,0.1270092 0.2921523,0.5227418 0.3625492,0.6831293 0.022437,0.051119 0.046247,0.1011927 0.052912,0.1112758 0.019055,0.028828 0.01446,0.056996 -0.012141,0.074426 -0.072095,0.047239 -0.2192103,0.2337851 -0.2750088,0.3487194 -0.061471,0.1266186 -0.1089032,0.3024587 -0.127862,0.4740081 -0.015019,0.1358985 -0.015111,0.1821465 -0.00572,2.8582155 0.00461,1.3138699 0.00542,2.4006529 0.0018,2.4150734 -0.00658,0.026219 -0.00658,0.026219 -0.1525662,0.019867 C 8.8495614,8.3916242 8.6713241,8.4160061 8.3642051,8.5040805 8.1175817,8.5748063 7.8012684,8.7464043 7.5919412,8.9230292 7.3525617,9.1250114 7.2182735,9.2771024 7.0379022,9.5505185 6.9699485,9.653526 6.8766102,9.8379523 6.8403409,9.9408781 c -0.048441,0.1374659 -0.072515,0.2161279 -0.098133,0.3206529 -0.023532,0.09601 -0.033207,0.119423 -0.04033,0.09759 -0.017949,-0.05501 -0.059394,-0.266838 -0.076321,-0.3900766 -0.00735,-0.053519 -0.01531,-0.1037083 -0.017687,-0.1115313 -0.00238,-0.00782 -0.011702,-0.095782 -0.020723,-0.1954633 -0.02192,-0.2422293 -0.021625,-0.6857463 6.273e-4,-0.943198 0.00883,-0.1021429 0.019697,-0.2025211 0.024152,-0.2230626 0.00445,-0.020542 0.010891,-0.070808 0.014303,-0.1117024 0.00341,-0.040895 0.010308,-0.090495 0.015325,-0.1102236 0.00502,-0.019728 0.015024,-0.072008 0.022239,-0.1161785 0.021983,-0.1345877 0.058603,-0.31448 0.0873,-0.4288444 0.076958,-0.3066999 0.1679941,-0.6212312 0.232693,-0.8039549 0.01086,-0.030671 0.023855,-0.069147 0.028878,-0.085501 0.00502,-0.016355 0.015242,-0.041449 0.02271,-0.055766 0.00747,-0.014317 0.013603,-0.031672 0.013635,-0.038567 2.79e-5,-0.0069 0.00571,-0.025716 0.012611,-0.041824 0.0069,-0.016108 0.021313,-0.052291 0.032018,-0.080406 0.010706,-0.028115 0.034584,-0.090852 0.053063,-0.1394142 0.01848,-0.048563 0.039287,-0.1029341 0.046239,-0.1208256 0.00695,-0.017892 0.028029,-0.072263 0.046837,-0.1208256 0.018808,-0.048563 0.049891,-0.1259374 0.069074,-0.1719441 0.031642,-0.075889 0.065591,-0.1589462 0.1120675,-0.2741811 0.053849,-0.133512 0.085591,-0.2113194 0.092897,-0.2277098 0.011983,-0.026884 0.08958,-0.2119857 0.120784,-0.2881226 0.014665,-0.035783 0.041663,-0.104793 0.059995,-0.1533556 0.018332,-0.048563 0.039519,-0.1020304 0.047084,-0.1188173 0.00756,-0.016787 0.013895,-0.035608 0.014069,-0.041824 1.738e-4,-0.00622 0.0084,-0.028032 0.018273,-0.04848 0.00988,-0.020447 0.0181,-0.041266 0.018273,-0.046265 1.738e-4,-0.005 0.015289,-0.046822 0.033589,-0.092943 0.080451,-0.2027502 0.1083761,-0.2850648 0.2412757,-0.711219 0.00717,-0.023003 0.021641,-0.073192 0.032149,-0.1115313 0.010508,-0.038339 0.023869,-0.084346 0.029691,-0.1022371 0.010893,-0.033477 0.027599,-0.1021438 0.048615,-0.1998269 0.0066,-0.030671 0.016581,-0.072495 0.022182,-0.092943 0.0056,-0.020447 0.01902,-0.07691 0.029819,-0.1254727 0.0108,-0.048563 0.02544,-0.1133902 0.032534,-0.1440613 0.013053,-0.056431 0.040848,-0.189854 0.059056,-0.2834754 0.016384,-0.084244 0.040144,-0.2801366 0.034646,-0.2856352 -0.00867,-0.00867 -0.041521,0.037748 -0.047563,0.06722 -0.00314,0.015335 -0.013241,0.055069 -0.022436,0.088296 -0.0092,0.033227 -0.021717,0.079234 -0.027826,0.1022371 -0.024568,0.09252 -0.03682,0.1360789 -0.045748,0.1626498 -0.00515,0.015335 -0.018599,0.059251 -0.02988,0.09759 -0.027438,0.093244 -0.054106,0.1770785 -0.063567,0.1998269 -0.00425,0.010224 -0.016924,0.043683 -0.028161,0.074354 -0.011237,0.030671 -0.028526,0.073653 -0.03842,0.095515 -0.00989,0.021862 -0.01799,0.045572 -0.01799,0.052689 0,0.00712 -0.00608,0.02478 -0.013516,0.039252 -0.00743,0.014472 -0.028663,0.066045 -0.047176,0.1146081 -0.018513,0.048563 -0.041708,0.1054835 -0.051544,0.1264908 -0.00984,0.021007 -0.017884,0.042626 -0.017884,0.048042 0,0.00542 -0.00594,0.021687 -0.013202,0.036159 -0.00726,0.014472 -0.020548,0.045133 -0.029527,0.068137 -0.018544,0.047509 -0.045035,0.1112307 -0.06472,0.1556792 -0.00736,0.016614 -0.019248,0.043799 -0.026424,0.060413 -0.023396,0.054167 -0.053906,0.1218169 -0.086978,0.1928562 -0.017848,0.038339 -0.046925,0.1010753 -0.064615,0.1394142 -0.01769,0.038339 -0.035669,0.075981 -0.039953,0.083648 -0.00428,0.00767 -0.058827,0.1164109 -0.1212049,0.2416512 C 7.3951365,5.0936805 7.3166854,5.2505214 7.2831791,5.3169755 6.9741207,5.9299411 6.8002107,6.290977 6.7145964,6.4973486 c -0.021207,0.051119 -0.044659,0.1075813 -0.052116,0.1254728 -0.00746,0.017891 -0.019722,0.044371 -0.027255,0.058842 -0.00753,0.014472 -0.013697,0.030569 -0.013697,0.035773 0,0.0052 -0.00601,0.022639 -0.013361,0.038747 -0.00735,0.016108 -0.024266,0.056473 -0.037593,0.0897 -0.013327,0.033227 -0.028114,0.068778 -0.032859,0.079001 -0.00474,0.010224 -0.014437,0.035318 -0.021539,0.055766 -0.030361,0.087417 -0.064079,0.1785666 -0.075638,0.2044741 -0.00684,0.015336 -0.021697,0.059251 -0.033009,0.09759 -0.011312,0.038339 -0.025994,0.084346 -0.032626,0.102237 -0.00663,0.017892 -0.018831,0.055533 -0.027111,0.083648 -0.00828,0.028115 -0.023139,0.078304 -0.033023,0.1115314 -0.031482,0.1058391 -0.05319,0.1885612 -0.068292,0.2602397 -0.00808,0.038339 -0.023065,0.1094401 -0.033306,0.1580027 -0.040679,0.1929116 -0.069044,0.3513145 -0.084832,0.4737456 -0.00558,0.043306 -0.011945,0.081638 -0.014135,0.085181 -0.00511,0.00827 -0.020321,0.224423 -0.031375,0.4459088 -0.014108,0.2826918 0.021466,0.8235091 0.069015,1.0491993 0.007,0.03323 0.015263,0.07923 0.018363,0.102237 0.00711,0.05274 0.030228,0.158173 0.047625,0.217159 0.014375,0.04874 0.017643,0.0992 0.00636,0.09828 -0.00383,-3.16e-4 -0.044613,-0.02974 -0.090619,-0.0654 z"
       id="path9009"
       inkscape:label="logo" /><g
       id="g3282"
       inkscape:label="Text"
       transform="translate(4.8600733,-0.02741668)"
       sodipodi:insensitive="true"><path
         d="M 17.77,11.8 V 11.1 H 13.4 V 0.23 H 12.48 V 11.8 Z m 3,0 h 0.91 V 7.35 L 24.81,0.23 H 23.92 L 21.26,6.3 18.61,0.23 h -0.95 l 3.1,7.12 z M 26.12,0.23 V 11.8 h 0.91 V 6.62 h 1.45 c 1.59,0 2.6,0.43 2.6,1.97 v 1.82 c 0,0.63 0.06,1.04 0.3,1.39 h 0.95 c -0.3,-0.38 -0.34,-0.91 -0.34,-1.4 V 8.6 c 0,-1.25 -0.58,-2.1 -2,-2.36 1.36,-0.26 2,-1.04 2,-2.4 v -1 c 0,-1.64 -0.85,-2.61 -2.97,-2.61 z m 0.91,5.7 V 0.92 H 29 c 1.5,0 2.08,0.74 2.08,1.98 V 4 c 0,1.55 -0.95,1.93 -2.58,1.93 z m 6.76,-5.7 V 11.8 h 0.9 V 0.23 Z m 5.45,-0.1 c -2.12,0 -3,1.25 -3,2.92 v 5.92 c 0,1.67 0.88,2.93 3,2.93 2.12,0 2.99,-1.26 2.99,-2.93 V 7.65 h -0.87 v 1.37 c 0,1.24 -0.58,2.17 -2.1,2.17 -1.53,0 -2.1,-0.93 -2.1,-2.17 V 3 c 0,-1.24 0.57,-2.18 2.1,-2.18 1.52,0 2.1,0.94 2.1,2.18 v 1.01 h 0.87 V 3.05 c 0,-1.67 -0.87,-2.92 -3,-2.92 z m 7.36,0 C 44.54,0.14 43.63,1.27 43.63,3 c 0,3.23 5.01,3.28 5.01,6.05 0,1.24 -0.57,2.14 -2.1,2.14 -1.52,0 -2.1,-0.9 -2.1,-2.14 V 8.41 H 43.57 V 9 c 0,1.66 0.87,2.89 3,2.89 2.11,0 2.98,-1.23 2.98,-2.9 0,-3.19 -5.01,-3.24 -5.01,-6.05 0,-1.22 0.55,-2.13 2.06,-2.13 1.5,0 2.06,0.93 2.06,2.15 v 0.3 h 0.87 V 3.01 c 0,-1.67 -0.85,-2.9 -2.95,-2.9 z"
         style="line-height:1.25;display:inline;fill:#ffffff;-inkscape-font-specification:'Bebas Neue'"
         font-family="'Bebas Neue'"
         fill="#ffffff"
         id="path8"
         inkscape:label="Lyrics" /><path
         d="m 46.477513,0.25304718 h 1.993376 V 12.938167 h -1.993376 z"
         id="path3276"
         inkscape:label="I"
         style="font-size:18.1216px;font-family:'Bebas Neue';-inkscape-font-specification:'Bebas Neue';letter-spacing:-0.24875px;display:inline;fill:#0000ff;stroke-width:1.51013"
         transform="scale(1.0971519,0.91145085)" /><path
         d="m 49.619043,0.24890041 h 2.513352 L 54.336269,7.8800217 H 54.117584 V 0.24890041 h 1.784844 V 12.99779 H 53.844389 L 51.095158,3.8005784 51.403883,3.6911007 V 12.99779 h -1.784844 z"
         id="path3278"
         inkscape:label="N"
         sodipodi:nodetypes="ccccccccccccc"
         style="font-size:18.2127px;font-family:'Bebas Neue';-inkscape-font-specification:'Bebas Neue';letter-spacing:-0.25px;fill:#0000ff;stroke-width:1.51772"
         transform="scale(1.1026658,0.90689309)" /><path
         d="m 66.372866,11.904673 c -1.047126,0 -1.824218,-0.302309 -2.380917,-0.789944 C 63.448504,10.627095 63.176781,9.9389883 63.176781,9.0504094 V 2.9387223 c 0,-0.8885786 0.271723,-1.5766853 0.815168,-2.06431994 0.556699,-0.4876346 1.358613,-0.73145191 2.405738,-0.73145191 1.047126,0 1.842412,0.24381731 2.385857,0.73145191 0.5567,0.48763464 0.83505,1.17574134 0.83505,2.06431994 V 4.1415544 H 67.550851 V 2.8249408 c 0,-0.7043611 -0.364506,-1.0565416 -1.093517,-1.0565416 -0.729013,0 -1.093518,0.3521805 -1.093518,1.0565416 v 6.355505 c 0,0.6935247 0.364505,1.0402872 1.093518,1.0402872 0.729011,0 1.093517,-0.3467625 1.093517,-1.0402872 V 7.4412154 h 2.067743 v 1.609194 c 0,0.8885789 -0.27835,1.5766856 -0.83505,2.0643196 -0.543445,0.487635 -1.363552,0.789944 -2.410678,0.789944 z"
         id="path3280"
         inkscape:label="C"
         style="font-size:17.8883px;font-family:'Bebas Neue';-inkscape-font-specification:'Bebas Neue';letter-spacing:-0.245548px;display:inline;fill:#0000ff;stroke-width:1.49809"
         sodipodi:nodetypes="scsscscsccssssssccscs" /><ellipse
         style="fill:#f30080;fill-opacity:1;stroke-width:0.145468"
         id="path3340"
         cx="62.386829"
         cy="5.8914375"
         rx="1.6584216"
         ry="1.6323447"
         inkscape:label="dot" /></g></g></svg>
